# xmcd
#
# Track frame offsets: 
#        150
#        10645
#        23240
#        34607
#        45630
#        55922
#        69467
#        82114
#        93545
#        107423
#        119044
#        131819
#        142958
#        153846
#        165270
#
# Disc length: 2360 seconds
#
# Revision: 0
# Processed by: cddbd v1.5.1PL0 Copyright (c) Steve Scherf et al.
# Submitted via: ExactAudioCopy v0.95a5
#
DISCID=bc09360f
DTITLE=Ray Charles - This Is Gold Disc 03
DYEAR=2004
DGENRE=Blues
TTITLE0=I Wonder Who's Kissing Her Now
TTITLE1=Blues Before Sunrise
TTITLE2=Back Home
TTITLE3=I'll Do Anything But Work
TTITLE4=Ain't That Fine
TTITLE5=The Midnight Hour
TTITLE6=You'll Never Miss The Water
TTITLE7=Guitar Blues
TTITLE8=Late In The Evening Blues
TTITLE9=How Long Blues
TTITLE10=Don't Put Your Dreams In One Basket
TTITLE11=Let's Have A Ball
TTITLE12=A Sentimental Blues
TTITLE13=Here I Am
TTITLE14=The Sun's Gonna Shine Again
EXTD=
EXTT0=
EXTT1=
EXTT2=
EXTT3=
EXTT4=
EXTT5=
EXTT6=
EXTT7=
EXTT8=
EXTT9=
EXTT10=
EXTT11=
EXTT12=
EXTT13=
EXTT14=
PLAYORDER=
